#!OML:ASF H:\Terrain\Patient Classification 1\Takeo\Monday\TakeoMonday.ASF
:FULLY-SPECIFIED
:DEGREES
189
root 10.1711 17.1079 4.41128 -1.52827 7.9485 3.80046
lowerback 7.59175 -3.20959 -3.13677
upperback 1.421 -4.50378 0.429244
thorax -2.49908 -2.21885 2.62128
lowerneck -14.6457 1.15177 -4.36208
upperneck -1.88569 2.238 -0.101453
head 1.85745 1.12355 0.85725
rclavicle 2.64384e-014 3.97569e-016
rhumerus -55.291 -8.61344 -80.3597
rradius 13.3434
rwrist -0.607484
rhand -27.8826 16.5313
rfingers 7.12502
rthumb -1.27251 -13.4447
lclavicle 2.64384e-014 3.97569e-016
lhumerus -24.8242 -10.4876 88.2424
lradius 80.4997
lwrist 32.1524
lhand -24.7165 11.6871
lfingers 7.12502
lthumb 1.78537 41.6594
rfemur -32.2701 6.26011 13.1918
rtibia 26.2754
rfoot -20.0703 -14.2542
rtoes -17.4784
lfemur 21.3962 -5.71136 -27.796
ltibia 16.006
lfoot -10.3581 -0.436314
ltoes -20.4817
190
root 10.1529 17.0639 4.69723 -1.75457 7.99775 3.56115
lowerback 7.48714 -3.30091 -2.93525
upperback 1.51513 -4.60202 0.519388
thorax -2.34557 -2.27354 2.59923
lowerneck -14.9189 1.31537 -4.13911
upperneck -1.69308 2.4426 -0.406955
head 1.97112 1.21029 0.738114
rclavicle -3.05631e-014 -4.77083e-015
rhumerus -55.4854 -9.201 -79.5485
rradius 12.7811
rwrist 0.286568
rhand -27.6702 17.0681
rfingers 7.12502
rthumb -1.06738 -12.9089
lclavicle -3.05631e-014 -4.77083e-015
lhumerus -25.0761 -10.3096 88.1416
lradius 81.0731
lwrist 31.9055
lhand -24.6938 11.1976
lfingers 7.12502
lthumb 1.80734 41.1697
rfemur -31.8591 6.53094 13.7012
rtibia 27.188
rfoot -19.9192 -14.299
rtoes -16.3537
lfemur 22.1974 -5.58328 -27.3524
ltibia 16.8013
lfoot -9.95234 -0.72495
ltoes -20.5679
191
root 10.1336 17.0171 4.98886 -2.02517 8.02236 3.43573
lowerback 7.37983 -3.35908 -2.79842
upperback 1.64562 -4.66241 0.574425
thorax -2.15357 -2.30991 2.57168
lowerneck -15.1281 1.39669 -3.97241
upperneck -1.66246 2.54205 -0.722919
head 2.02175 1.24705 0.616454
rclavicle 1.06847e-014 1.23246e-014
rhumerus -55.6619 -11.0436 -77.2009
rradius 11.9004
rwrist 3.20554
rhand -27.2356 16.7718
rfingers 7.12502
rthumb -0.647623 -13.207
lclavicle 1.06847e-014 1.23246e-014
lhumerus -25.3806 -10.189 88.1294
lradius 81.5608
lwrist 31.6619
lhand -24.7175 11.2885
lfingers 7.12502
lthumb 1.78438 41.2608
rfemur -31.4752 6.74756 14.17
rtibia 28.3984
rfoot -19.4324 -14.5024
rtoes -15.4757
lfemur 23.1349 -5.44876 -27.0642
ltibia 17.5104
lfoot -9.18061 -0.906177
ltoes -21.7672
192
root 10.1132 16.9798 5.27903 -2.15466 7.87745 3.55377
lowerback 7.23079 -3.38166 -2.98065
upperback 1.5881 -4.70297 0.585539
thorax -2.11198 -2.32976 2.67928
lowerneck -15.1173 1.52 -3.78269
upperneck -1.37992 2.69099 -1.10873
head 2.11977 1.30171 0.471111
rclavicle 2.56929e-014 1.11319e-014
rhumerus -56.161 -12.7887 -74.6476
rradius 11.1108
rwrist 6.29016
rhand -27.2327 17.0535
rfingers 7.12502
rthumb -0.644868 -12.9252
lclavicle 2.56929e-014 1.11319e-014
lhumerus -26.073 -10.0781 88.1492
lradius 82.0082
lwrist 31.542
lhand -25.0424 11.8298
lfingers 7.12502
lthumb 1.47064 41.8045
rfemur -31.2984 6.97455 14.4424
rtibia 29.7811
rfoot -18.277 -14.5952
rtoes -14.3065
lfemur 23.8482 -5.16893 -27.0167
ltibia 18.2758
lfoot -8.13162 -1.03783
ltoes -23.4826
193
root 10.0941 16.953 5.57256 -2.29675 7.62741 3.37397
lowerback 7.09887 -3.40144 -2.89559
upperback 1.39236 -4.71879 0.729942
thorax -2.23458 -2.33342 2.78099
lowerneck -15.1332 1.6754 -3.58835
upperneck -0.668117 2.90397 -1.68507
head 2.37339 1.37173 0.272134
rclavicle 4.02042e-014 -5.56597e-015
rhumerus -56.839 -13.4176 -73.0956
rradius 10.7832
rwrist 7.36097
rhand -27.8892 17.782
rfingers 7.12502
rthumb -1.27886 -12.1939
lclavicle 4.02042e-014 -5.56597e-015
lhumerus -27.0306 -9.89959 88.2926
lradius 82.3044
lwrist 31.4776
lhand -25.2999 12.0593
lfingers 7.12502
lthumb 1.22197 42.0355
rfemur -31.207 7.1206 15.1305
rtibia 31.376
rfoot -16.2274 -14.8864
rtoes -14.5132
lfemur 24.4185 -4.66135 -26.5078
ltibia 19.1091
lfoot -6.80718 -1.34578
ltoes -24.0514
194
root 10.075 16.9307 5.87416 -2.31553 7.29119 3.04676
lowerback 6.68323 -3.42318 -2.64505
upperback 1.19033 -4.71824 0.870041
thorax -2.22064 -2.33292 2.76512
lowerneck -14.8746 1.86553 -3.18822
upperneck -0.30742 3.11309 -2.31118
head 2.46433 1.44638 0.013128
rclavicle 7.45443e-015 7.95139e-016
rhumerus -57.5146 -14.3096 -71.2375
rradius 10.29
rwrist 8.68448
rhand -28.255 19.0974
rfingers 7.12502
rthumb -1.63221 -10.8761
lclavicle 7.45443e-015 7.95139e-016
lhumerus -28.0817 -9.66109 88.3728
lradius 82.5011
lwrist 31.3646
lhand -25.568 11.7073
lfingers 7.12502
lthumb 0.962989 41.6848
rfemur -31.4302 7.29111 15.9528
rtibia 33.1896
rfoot -13.9832 -15.4339
rtoes -16.2124
lfemur 24.709 -4.22233 -25.855
ltibia 20.0819
lfoot -5.03782 -1.48771
ltoes -23.0011
